<svg xmlns="http://www.w3.org/2000/svg" viewBox="0 0 512 512"><defs><radialGradient id="g" cx="50%" cy="35%" r="75%"><stop offset="0" stop-color="#a4f8ff"/><stop offset=".6" stop-color="#4f7780"/><stop offset="1" stop-color="#1f3033"/></radialGradient></defs><rect width="512" height="512" rx="44" fill="#0a0806"/><rect x="18" y="18" width="476" height="476" rx="34" fill="url(#g)"/><rect x="18" y="18" width="476" height="476" rx="34" fill="none" stroke="#c8ffff" stroke-opacity=".55" stroke-width="10"/><g transform="translate(66 66) scale(.742)" fill="#fff" stroke="#000" stroke-opacity=".45" stroke-width="18" paint-order="stroke"><path d="M22.472 28.76c107.552 68.108 207.02 121.53 322.01 133.68 40.707 4.3 47.814 34.94 31.675 70.102-26.52 57.774 16.43 143.547 112.342 195.465-5.983 27.987-46.316 51.545-71.16 43.272-20.682-43.168-52.9-88.738-87.806-76.376-71.394 25.286-144.915 30.663-194.836 3.448 66.227-8.987 129.273-26.595 184.8-54.342C219.18 359.013 100.407 359.4 55.4 309.038c91.057 3.638 164.862-5.6 247.26-26.224C192.912 272.707 72.247 252.64 38.277 185.35c80.977 25.247 189.57 34.646 263.032 35.158C186.86 191.675 32.936 112.722 22.47 28.76z"/></g></svg>